<svg id="Layer_1" data-name="Layer 1" xmlns="http://www.w3.org/2000/svg" viewBox="0 0 18.22 18"><defs><style>.cls-1{fill:#a899c6;}</style></defs><path class="cls-1" d="M3.07,12.92A.5.5,0,0,1,2.82,12L8.75,8.57a.5.5,0,0,1,.68.18.5.5,0,0,1-.18.68L3.32,12.85A.47.47,0,0,1,3.07,12.92Z"/><path class="cls-1" d="M9,9.5A.5.5,0,0,1,8.5,9V2.16a.5.5,0,0,1,.5-.5.5.5,0,0,1,.5.5V9A.5.5,0,0,1,9,9.5Z"/><path class="cls-1" d="M14.92,12.92a.47.47,0,0,1-.25-.07L8.75,9.43a.5.5,0,0,1-.19-.68.51.51,0,0,1,.69-.18L15.17,12a.5.5,0,0,1-.25.93Z"/><path class="cls-1" d="M9,12.92A3.92,3.92,0,1,1,12.92,9,3.93,3.93,0,0,1,9,12.92ZM9,6.08A2.92,2.92,0,1,0,11.92,9,2.93,2.93,0,0,0,9,6.08Z"/><path class="cls-1" d="M9,9.5a.5.5,0,0,1-.25-.93l5.92-3.42a.5.5,0,0,1,.5.86L9.25,9.43A.47.47,0,0,1,9,9.5Z"/><path class="cls-1" d="M9,16.34a.5.5,0,0,1-.5-.5V9A.5.5,0,0,1,9,8.5a.5.5,0,0,1,.5.5v6.84A.5.5,0,0,1,9,16.34Z"/><path class="cls-1" d="M9,9.5a.43.43,0,0,1-.25-.07L2.82,6a.5.5,0,1,1,.5-.86L9.25,8.57a.5.5,0,0,1,.18.68A.5.5,0,0,1,9,9.5Z"/></svg>