<svg id="Layer_1" data-name="Layer 1" xmlns="http://www.w3.org/2000/svg" viewBox="0 0 18.22 18"><defs><style>.cls-1{fill:#a899c6;}</style></defs><path class="cls-1" d="M9,9.5a.5.5,0,0,1-.44-.25L5.14,3.32a.5.5,0,0,1,.18-.68A.51.51,0,0,1,6,2.82L9.43,8.75a.5.5,0,0,1-.18.68A.47.47,0,0,1,9,9.5Z"/><path class="cls-1" d="M15.84,9.5H9a.5.5,0,0,1,0-1h6.84a.5.5,0,0,1,0,1Z"/><path class="cls-1" d="M5.57,15.43a.59.59,0,0,1-.25-.07.49.49,0,0,1-.18-.68L8.56,8.75a.5.5,0,0,1,.87.5L6,15.18A.5.5,0,0,1,5.57,15.43Z"/></svg>