<svg id="Layer_1" data-name="Layer 1" xmlns="http://www.w3.org/2000/svg" viewBox="0 0 18.22 18"><defs><style>.cls-1{fill:#a899c6;}</style></defs><path class="cls-1" d="M9,9.5a.45.45,0,0,1-.25-.07.5.5,0,0,1-.19-.68L12,2.82a.51.51,0,0,1,.69-.18.49.49,0,0,1,.18.68L9.43,9.25A.5.5,0,0,1,9,9.5Z"/><path class="cls-1" d="M9,9.5H2.15a.5.5,0,0,1,0-1H9a.5.5,0,0,1,0,1Z"/><path class="cls-1" d="M12.42,15.43a.51.51,0,0,1-.44-.25L8.56,9.25a.5.5,0,0,1,.87-.5l3.42,5.93a.5.5,0,0,1-.18.68A.59.59,0,0,1,12.42,15.43Z"/></svg>